<svg width="117px" height="16px" viewBox="0 0 117 16" version="1.1" xmlns="http://www.w3.org/2000/svg" xmlns:xlink="http://www.w3.org/1999/xlink">
    <g id="Symbols" stroke="none" stroke-width="1" fill="none" fill-rule="evenodd">
        <g id="Desktop-/-Header" transform="translate(-195.000000, -67.000000)" fill="#283996">
            <g id="Adax---Logo" transform="translate(195.000000, 67.000000)">
                <polygon id="Fill-1" points="108.468 0 104.963 3.506 101.456 0 93.114 0 100.79 7.677 93.129 15.339 101.472 15.339 104.963 11.849 108.453 15.339 116.795 15.339 109.134 7.677 116.811 0"></polygon>
                <path d="M72.8479,10.2204 L81.5089,10.2204 L81.5089,15.3394 L91.1249,15.3394 L91.1249,1.6654 C91.1249,0.7504 90.3839,0.0094 89.4699,0.0094 L77.2829,0.0094 L65.0979,0.0094 C64.1829,0.0094 63.4419,0.7504 63.4419,1.6654 L63.4419,15.3394 L72.8479,15.3394 L72.8479,10.2204 Z M72.8479,7.6184 L81.5089,7.6184 L81.5089,3.1874 L72.8479,3.1874 L72.8479,7.6184 Z" id="Fill-2"></path>
                <path d="M33.6892,3.1862 L33.6892,12.2622 L30.9132,12.2622 L30.9132,15.3392 L58.2432,15.3392 C59.1582,15.3392 59.8992,14.5982 59.8992,13.6842 L59.8992,1.6752 C59.8992,0.7602 59.1582,0.0192 58.2432,0.0192 L44.4532,0.0192 L30.9132,0.0192 L30.9132,3.1862 L33.6892,3.1862 Z M42.6552,12.2642 L50.9152,12.2642 L50.9152,3.1882 L42.6552,3.1882 L42.6552,12.2642 Z" id="Fill-4"></path>
                <path d="M26.0271,0.0095 L13.8411,0.0095 L1.6551,0.0095 C0.7411,0.0095 0.0001,0.7505 0.0001,1.6655 L0.0001,15.3395 L9.4071,15.3395 L9.4071,10.2205 L18.0671,10.2205 L18.0671,15.3395 L27.6821,15.3395 L27.6821,1.6655 C27.6821,0.7505 26.9411,0.0095 26.0271,0.0095 L26.0271,0.0095 Z M9.4071,7.6195 L18.0671,7.6195 L18.0671,3.1885 L9.4071,3.1885 L9.4071,7.6195 Z" id="Fill-6"></path>
            </g>
        </g>
    </g>
</svg>
